<svg width="1200" height="700" viewBox="0 0 1200 700" fill="none" xmlns="http://www.w3.org/2000/svg">
  <defs>
    <linearGradient id="bg" x1="62" y1="44" x2="1140" y2="680" gradientUnits="userSpaceOnUse">
      <stop stop-color="#0A1020"/>
      <stop offset="1" stop-color="#0D1A33"/>
    </linearGradient>
    <linearGradient id="cyan" x1="0" y1="0" x2="1" y2="1">
      <stop stop-color="#5AF7FF"/>
      <stop offset="1" stop-color="#7792FF"/>
    </linearGradient>
    <linearGradient id="violet" x1="0" y1="0" x2="1" y2="1">
      <stop stop-color="#A36CFF"/>
      <stop offset="1" stop-color="#F071FF"/>
    </linearGradient>
  </defs>
  <rect x="20" y="20" width="1160" height="660" rx="36" fill="url(#bg)"/>
  <rect x="60" y="120" width="220" height="430" rx="28" fill="#111C36" stroke="#5AF7FF" stroke-opacity="0.18"/>
  <rect x="344" y="120" width="220" height="430" rx="28" fill="#111C36" stroke="#5AF7FF" stroke-opacity="0.18"/>
  <rect x="628" y="120" width="220" height="430" rx="28" fill="#111C36" stroke="#A36CFF" stroke-opacity="0.2"/>
  <rect x="912" y="120" width="220" height="430" rx="28" fill="#111C36" stroke="#5AF7FF" stroke-opacity="0.18"/>
  <path d="M280 335H344" stroke="url(#cyan)" stroke-width="6" stroke-linecap="round"/>
  <path d="M564 335H628" stroke="url(#violet)" stroke-width="6" stroke-linecap="round"/>
  <path d="M848 335H912" stroke="url(#cyan)" stroke-width="6" stroke-linecap="round"/>
  <circle cx="280" cy="335" r="10" fill="#5AF7FF"/>
  <circle cx="564" cy="335" r="10" fill="#A36CFF"/>
  <circle cx="848" cy="335" r="10" fill="#5AF7FF"/>
  <circle cx="344" cy="335" r="10" fill="#5AF7FF"/>
  <circle cx="628" cy="335" r="10" fill="#A36CFF"/>
  <circle cx="912" cy="335" r="10" fill="#5AF7FF"/>
  <text x="90" y="82" fill="#F8FBFF" font-family="Arial, Helvetica, sans-serif" font-size="38" font-weight="700">CINEMATIKINK AI CREATIVE PIPELINE</text>
  <text x="90" y="594" fill="#8FA8D7" font-family="Arial, Helvetica, sans-serif" font-size="21">from raw idea to cinematic, system-ready, publishable content</text>
  <text x="98" y="190" fill="#DFFBFF" font-family="Arial, Helvetica, sans-serif" font-size="28" font-weight="700">01</text>
  <text x="98" y="232" fill="#F8FBFF" font-family="Arial, Helvetica, sans-serif" font-size="28" font-weight="700">Brand Signal</text>
  <text x="98" y="276" fill="#9EB7E6" font-family="Arial, Helvetica, sans-serif" font-size="21">identity, voice, audience, promise</text>
  <rect x="98" y="324" width="144" height="118" rx="20" fill="#0D1731"/>
  <path d="M124 402L161 361L189 383L219 346" stroke="url(#cyan)" stroke-width="6" stroke-linecap="round" stroke-linejoin="round"/>

  <text x="382" y="190" fill="#DFFBFF" font-family="Arial, Helvetica, sans-serif" font-size="28" font-weight="700">02</text>
  <text x="382" y="232" fill="#F8FBFF" font-family="Arial, Helvetica, sans-serif" font-size="28" font-weight="700">AI Structure</text>
  <text x="382" y="276" fill="#9EB7E6" font-family="Arial, Helvetica, sans-serif" font-size="21">prompts, narrative systems, logic</text>
  <rect x="382" y="324" width="144" height="118" rx="20" fill="#0D1731"/>
  <path d="M418 414L452 348L490 414" stroke="url(#cyan)" stroke-width="6" stroke-linecap="round" stroke-linejoin="round"/>
  <path d="M436 381H474" stroke="url(#cyan)" stroke-width="6" stroke-linecap="round"/>

  <text x="666" y="190" fill="#F4E6FF" font-family="Arial, Helvetica, sans-serif" font-size="28" font-weight="700">03</text>
  <text x="666" y="232" fill="#F8FBFF" font-family="Arial, Helvetica, sans-serif" font-size="28" font-weight="700">Cinematic Build</text>
  <text x="666" y="276" fill="#9EB7E6" font-family="Arial, Helvetica, sans-serif" font-size="21">visual rhythm, emotion, scene design</text>
  <rect x="666" y="324" width="144" height="118" rx="20" fill="#0D1731"/>
  <circle cx="738" cy="383" r="34" stroke="url(#violet)" stroke-width="6"/>
  <path d="M744 367L770 383L744 399V367Z" fill="#D787FF"/>

  <text x="950" y="190" fill="#DFFBFF" font-family="Arial, Helvetica, sans-serif" font-size="28" font-weight="700">04</text>
  <text x="950" y="232" fill="#F8FBFF" font-family="Arial, Helvetica, sans-serif" font-size="28" font-weight="700">Scale & Presence</text>
  <text x="950" y="276" fill="#9EB7E6" font-family="Arial, Helvetica, sans-serif" font-size="21">website, reels, decks, campaign assets</text>
  <rect x="950" y="324" width="144" height="118" rx="20" fill="#0D1731"/>
  <path d="M982 403H1064" stroke="url(#cyan)" stroke-width="6" stroke-linecap="round"/>
  <path d="M982 373H1034" stroke="url(#cyan)" stroke-width="6" stroke-linecap="round"/>
</svg>
